<?xml version="1.0" encoding="UTF-8" standalone="no"?>
<!DOCTYPE svg PUBLIC "-//W3C//DTD SVG 1.0//EN" "http://www.w3.org/TR/2001/PR-SVG-20010719/DTD/svg10.dtd">
<svg width="19cm" height="26cm" viewBox="164 19 377 502" xmlns="http://www.w3.org/2000/svg" xmlns:xlink="http://www.w3.org/1999/xlink">
  <text font-size="12.8" style="fill: #000000;text-anchor:start;font-family:sans-serif;font-style:normal;font-weight:normal" x="164" y="107">
    <tspan x="164" y="107"></tspan>
  </text>
  <g>
    <rect style="fill: #ffffff" x="200" y="300" width="140" height="82"/>
    <rect style="fill: none; fill-opacity:0; stroke-width: 2; stroke: #000000" x="200" y="300" width="140" height="82"/>
    <text font-size="12.8" style="fill: #000000;text-anchor:middle;font-family:sans-serif;font-style:normal;font-weight:normal" x="270" y="344.9">
      <tspan x="270" y="344.9">Profile</tspan>
    </text>
  </g>
  <g>
    <rect style="fill: #ffffff" x="200" y="20" width="140" height="80"/>
    <rect style="fill: none; fill-opacity:0; stroke-width: 2; stroke: #000000" x="200" y="20" width="140" height="80"/>
    <text font-size="12.8" style="fill: #000000;text-anchor:middle;font-family:sans-serif;font-style:normal;font-weight:normal" x="270" y="47.9">
      <tspan x="270" y="47.9">User</tspan>
      <tspan x="270" y="63.9">[real person]</tspan>
      <tspan x="270" y="79.9">[login]</tspan>
    </text>
  </g>
  <g>
    <rect style="fill: #ffffff" x="200" y="160" width="140" height="80"/>
    <rect style="fill: none; fill-opacity:0; stroke-width: 2; stroke: #000000" x="200" y="160" width="140" height="80"/>
    <text font-size="12.8" style="fill: #000000;text-anchor:middle;font-family:sans-serif;font-style:normal;font-weight:normal" x="270" y="203.9">
      <tspan x="270" y="203.9">Experiment</tspan>
    </text>
  </g>
  <g>
    <rect style="fill: #ffffff" x="200" y="440" width="140" height="80"/>
    <rect style="fill: none; fill-opacity:0; stroke-width: 2; stroke: #000000" x="200" y="440" width="140" height="80"/>
    <text font-size="12.8" style="fill: #000000;text-anchor:middle;font-family:sans-serif;font-style:normal;font-weight:normal" x="270" y="483.9">
      <tspan x="270" y="483.9">Device</tspan>
    </text>
  </g>
  <g>
    <rect style="fill: #ffffff" x="400" y="300" width="140" height="82"/>
    <rect style="fill: none; fill-opacity:0; stroke-width: 2; stroke: #000000" x="400" y="300" width="140" height="82"/>
    <text font-size="12.8" style="fill: #000000;text-anchor:middle;font-family:sans-serif;font-style:normal;font-weight:normal" x="470" y="344.9">
      <tspan x="470" y="344.9">Result</tspan>
    </text>
  </g>
  <g>
    <line style="fill: none; fill-opacity:0; stroke-width: 2; stroke: #000000" x1="270" y1="240" x2="270" y2="300"/>
    <line style="fill: none; fill-opacity:0; stroke-width: 2; stroke: #000000" x1="270" y1="290" x2="265" y2="300"/>
    <line style="fill: none; fill-opacity:0; stroke-width: 2; stroke: #000000" x1="270" y1="290" x2="275" y2="300"/>
    <path style="fill: none; fill-opacity:0; stroke-width: 2; stroke: #000000" d="M 270 287.5 C 267.5,287.5 265,286.25 265,285 C 265,283.75 267.5,282.5 270,282.5 C 272.5,282.5 275,283.75 275,285 C 275,286.25 272.5,287.5 270,287.5"/>
  </g>
  <g>
    <line style="fill: none; fill-opacity:0; stroke-width: 2; stroke: #000000" x1="270" y1="382" x2="270" y2="440"/>
    <line style="fill: none; fill-opacity:0; stroke-width: 2; stroke: #000000" x1="275" y1="435" x2="265" y2="435"/>
    <path style="fill: none; fill-opacity:0; stroke-width: 2; stroke: #000000" d="M 270 427.5 C 267.5,427.5 265,426.25 265,425 C 265,423.75 267.5,422.5 270,422.5 C 272.5,422.5 275,423.75 275,425 C 275,426.25 272.5,427.5 270,427.5"/>
  </g>
  <g>
    <line style="fill: none; fill-opacity:0; stroke-width: 2; stroke: #000000" x1="340" y1="341" x2="400" y2="341"/>
    <line style="fill: none; fill-opacity:0; stroke-width: 2; stroke: #000000" x1="390" y1="341" x2="400" y2="346"/>
    <line style="fill: none; fill-opacity:0; stroke-width: 2; stroke: #000000" x1="390" y1="341" x2="400" y2="336"/>
    <path style="fill: none; fill-opacity:0; stroke-width: 2; stroke: #000000" d="M 387.5 341 C 387.5,343.5 386.25,346 385,346 C 383.75,346 382.5,343.5 382.5,341 C 382.5,338.5 383.75,336 385,336 C 386.25,336 387.5,338.5 387.5,341"/>
  </g>
  <g>
    <line style="fill: none; fill-opacity:0; stroke-width: 2; stroke: #000000" x1="305" y1="100" x2="305" y2="160"/>
    <line style="fill: none; fill-opacity:0; stroke-width: 2; stroke: #000000" x1="305" y1="110" x2="310" y2="100"/>
    <line style="fill: none; fill-opacity:0; stroke-width: 2; stroke: #000000" x1="305" y1="110" x2="300" y2="100"/>
  </g>
  <g>
    <line style="fill: none; fill-opacity:0; stroke-width: 2; stroke: #000000" x1="235" y1="100" x2="235" y2="160"/>
    <line style="fill: none; fill-opacity:0; stroke-width: 2; stroke: #000000" x1="235" y1="150" x2="230" y2="160"/>
    <line style="fill: none; fill-opacity:0; stroke-width: 2; stroke: #000000" x1="235" y1="150" x2="240" y2="160"/>
    <path style="fill: none; fill-opacity:0; stroke-width: 2; stroke: #000000" d="M 235 147.5 C 232.5,147.5 230,146.25 230,145 C 230,143.75 232.5,142.5 235,142.5 C 237.5,142.5 240,143.75 240,145 C 240,146.25 237.5,147.5 235,147.5"/>
  </g>
</svg>
