<?xml version="1.0" encoding="UTF-8" standalone="no"?>
<!DOCTYPE svg PUBLIC "-//W3C//DTD SVG 1.0//EN" "http://www.w3.org/TR/2001/PR-SVG-20010719/DTD/svg10.dtd">
<svg width="38cm" height="26cm" viewBox="-201 19 742 502" xmlns="http://www.w3.org/2000/svg" xmlns:xlink="http://www.w3.org/1999/xlink">
  <text font-size="12.8" style="fill: #000000;text-anchor:start;font-family:sans-serif;font-style:normal;font-weight:normal" x="164" y="107">
    <tspan x="164" y="107"></tspan>
  </text>
  <g>
    <rect style="fill: #ffffff" x="200" y="300" width="140" height="82"/>
    <rect style="fill: none; fill-opacity:0; stroke-width: 2; stroke: #000000" x="200" y="300" width="140" height="82"/>
    <text font-size="12.8" style="fill: #000000;text-anchor:middle;font-family:sans-serif;font-style:normal;font-weight:normal" x="270" y="344.9">
      <tspan x="270" y="344.9">Profile</tspan>
    </text>
  </g>
  <g>
    <rect style="fill: #ffffff" x="0" y="20" width="140" height="80"/>
    <rect style="fill: none; fill-opacity:0; stroke-width: 2; stroke: #000000" x="0" y="20" width="140" height="80"/>
    <text font-size="12.8" style="fill: #000000;text-anchor:middle;font-family:sans-serif;font-style:normal;font-weight:normal" x="70" y="47.9">
      <tspan x="70" y="47.9">User</tspan>
      <tspan x="70" y="63.9">[real person]</tspan>
      <tspan x="70" y="79.9">[login]</tspan>
    </text>
  </g>
  <g>
    <rect style="fill: #ffffff" x="200" y="160" width="140" height="82"/>
    <rect style="fill: none; fill-opacity:0; stroke-width: 2; stroke: #000000" x="200" y="160" width="140" height="82"/>
    <text font-size="12.8" style="fill: #000000;text-anchor:middle;font-family:sans-serif;font-style:normal;font-weight:normal" x="270" y="204.9">
      <tspan x="270" y="204.9">Experiment</tspan>
    </text>
  </g>
  <g>
    <rect style="fill: #ffffff" x="200" y="440" width="140" height="80"/>
    <rect style="fill: none; fill-opacity:0; stroke-width: 2; stroke: #000000" x="200" y="440" width="140" height="80"/>
    <text font-size="12.8" style="fill: #000000;text-anchor:middle;font-family:sans-serif;font-style:normal;font-weight:normal" x="270" y="483.9">
      <tspan x="270" y="483.9">Device</tspan>
    </text>
  </g>
  <g>
    <rect style="fill: #ffffff" x="400" y="300" width="140" height="82"/>
    <rect style="fill: none; fill-opacity:0; stroke-width: 2; stroke: #000000" x="400" y="300" width="140" height="82"/>
    <text font-size="12.8" style="fill: #000000;text-anchor:middle;font-family:sans-serif;font-style:normal;font-weight:normal" x="470" y="344.9">
      <tspan x="470" y="344.9">Result</tspan>
    </text>
  </g>
  <g>
    <line style="fill: none; fill-opacity:0; stroke-width: 2; stroke: #000000" x1="270" y1="242" x2="270" y2="300"/>
    <line style="fill: none; fill-opacity:0; stroke-width: 2; stroke: #000000" x1="270" y1="290" x2="265" y2="300"/>
    <line style="fill: none; fill-opacity:0; stroke-width: 2; stroke: #000000" x1="270" y1="290" x2="275" y2="300"/>
    <path style="fill: none; fill-opacity:0; stroke-width: 2; stroke: #000000" d="M 270 287.5 C 267.5,287.5 265,286.25 265,285 C 265,283.75 267.5,282.5 270,282.5 C 272.5,282.5 275,283.75 275,285 C 275,286.25 272.5,287.5 270,287.5"/>
  </g>
  <g>
    <line style="fill: none; fill-opacity:0; stroke-width: 2; stroke: #000000" x1="270" y1="382" x2="270" y2="440"/>
    <line style="fill: none; fill-opacity:0; stroke-width: 2; stroke: #000000" x1="270" y1="392" x2="275" y2="382"/>
    <line style="fill: none; fill-opacity:0; stroke-width: 2; stroke: #000000" x1="270" y1="392" x2="265" y2="382"/>
    <line style="fill: none; fill-opacity:0; stroke-width: 2; stroke: #000000" x1="275" y1="435" x2="265" y2="435"/>
    <path style="fill: none; fill-opacity:0; stroke-width: 2; stroke: #000000" d="M 270 427.5 C 267.5,427.5 265,426.25 265,425 C 265,423.75 267.5,422.5 270,422.5 C 272.5,422.5 275,423.75 275,425 C 275,426.25 272.5,427.5 270,427.5"/>
  </g>
  <g>
    <line style="fill: none; fill-opacity:0; stroke-width: 2; stroke: #000000" x1="340" y1="341" x2="400" y2="341"/>
    <line style="fill: none; fill-opacity:0; stroke-width: 2; stroke: #000000" x1="390" y1="341" x2="400" y2="346"/>
    <line style="fill: none; fill-opacity:0; stroke-width: 2; stroke: #000000" x1="390" y1="341" x2="400" y2="336"/>
    <path style="fill: none; fill-opacity:0; stroke-width: 2; stroke: #000000" d="M 387.5 341 C 387.5,343.5 386.25,346 385,346 C 383.75,346 382.5,343.5 382.5,341 C 382.5,338.5 383.75,336 385,336 C 386.25,336 387.5,338.5 387.5,341"/>
  </g>
  <g>
    <line style="fill: none; fill-opacity:0; stroke-width: 2; stroke: #000000" x1="70" y1="100" x2="70" y2="159.18"/>
    <line style="fill: none; fill-opacity:0; stroke-width: 2; stroke: #000000" x1="70" y1="110" x2="75" y2="100"/>
    <line style="fill: none; fill-opacity:0; stroke-width: 2; stroke: #000000" x1="70" y1="110" x2="65" y2="100"/>
    <line style="fill: none; fill-opacity:0; stroke-width: 2; stroke: #000000" x1="70" y1="149.18" x2="65" y2="159.18"/>
    <line style="fill: none; fill-opacity:0; stroke-width: 2; stroke: #000000" x1="70" y1="149.18" x2="75" y2="159.18"/>
    <path style="fill: none; fill-opacity:0; stroke-width: 2; stroke: #000000" d="M 70 146.68 C 67.5,146.68 65,145.43 65,144.18 C 65,142.93 67.5,141.68 70,141.68 C 72.5,141.68 75,142.93 75,144.18 C 75,145.43 72.5,146.68 70,146.68"/>
  </g>
  <g>
    <rect style="fill: #ffffff" x="0" y="300" width="140" height="80"/>
    <rect style="fill: none; fill-opacity:0; stroke-width: 2; stroke: #000000" x="0" y="300" width="140" height="80"/>
    <text font-size="12.8" style="fill: #000000;text-anchor:middle;font-family:sans-serif;font-style:normal;font-weight:normal" x="70" y="343.9">
      <tspan x="70" y="343.9">Subject</tspan>
    </text>
  </g>
  <g>
    <rect style="fill: #ffffff" x="-200" y="300" width="140" height="80"/>
    <rect style="fill: none; fill-opacity:0; stroke-width: 2; stroke: #000000" x="-200" y="300" width="140" height="80"/>
    <text font-size="12.8" style="fill: #000000;text-anchor:middle;font-family:sans-serif;font-style:normal;font-weight:normal" x="-130" y="327.9">
      <tspan x="-130" y="327.9">Person</tspan>
      <tspan x="-130" y="343.9">[real person]</tspan>
      <tspan x="-130" y="359.9">[login]</tspan>
    </text>
  </g>
  <g>
    <rect style="fill: #ffffff" x="0" y="160" width="140" height="80"/>
    <rect style="fill: none; fill-opacity:0; stroke-width: 2; stroke: #000000" x="0" y="160" width="140" height="80"/>
    <text font-size="12.8" style="fill: #000000;text-anchor:middle;font-family:sans-serif;font-style:normal;font-weight:normal" x="70" y="203.9">
      <tspan x="70" y="203.9">Project</tspan>
    </text>
  </g>
  <g>
    <line style="fill: none; fill-opacity:0; stroke-width: 2; stroke: #000000" x1="140" y1="200" x2="200" y2="201"/>
    <line style="fill: none; fill-opacity:0; stroke-width: 2; stroke: #000000" x1="190.001" y1="200.833" x2="199.917" y2="205.999"/>
    <line style="fill: none; fill-opacity:0; stroke-width: 2; stroke: #000000" x1="190.001" y1="200.833" x2="200.083" y2="196.001"/>
  </g>
  <g>
    <line style="fill: none; fill-opacity:0; stroke-width: 2; stroke: #000000" x1="140" y1="340" x2="200" y2="341"/>
    <line style="fill: none; fill-opacity:0; stroke-width: 2; stroke: #000000" x1="144.916" y1="345.083" x2="145.083" y2="335.084"/>
    <path style="fill: none; fill-opacity:0; stroke-width: 2; stroke: #000000" d="M 152.498 340.208 C 152.54,337.709 153.831,335.23 155.081,335.251 C 156.331,335.271 157.539,337.792 157.498,340.292 C 157.456,342.791 156.164,345.27 154.915,345.249 C 153.665,345.228 152.457,342.708 152.498,340.208"/>
    <line style="fill: none; fill-opacity:0; stroke-width: 2; stroke: #000000" x1="190.001" y1="340.833" x2="199.917" y2="345.999"/>
    <line style="fill: none; fill-opacity:0; stroke-width: 2; stroke: #000000" x1="190.001" y1="340.833" x2="200.083" y2="336.001"/>
  </g>
  <g>
    <line style="fill: none; fill-opacity:0; stroke-width: 2; stroke: #000000" x1="70" y1="240" x2="70" y2="300"/>
    <line style="fill: none; fill-opacity:0; stroke-width: 2; stroke: #000000" x1="70" y1="290" x2="65" y2="300"/>
    <line style="fill: none; fill-opacity:0; stroke-width: 2; stroke: #000000" x1="70" y1="290" x2="75" y2="300"/>
    <path style="fill: none; fill-opacity:0; stroke-width: 2; stroke: #000000" d="M 70 287.5 C 67.5,287.5 65,286.25 65,285 C 65,283.75 67.5,282.5 70,282.5 C 72.5,282.5 75,283.75 75,285 C 75,286.25 72.5,287.5 70,287.5"/>
  </g>
  <g>
    <line style="fill: none; fill-opacity:0; stroke-width: 2; stroke: #000000" x1="-60" y1="340" x2="0" y2="340"/>
    <line style="fill: none; fill-opacity:0; stroke-width: 2; stroke: #000000" x1="-55" y1="345" x2="-55" y2="335"/>
    <path style="fill: none; fill-opacity:0; stroke-width: 2; stroke: #000000" d="M -47.5 340 C -47.5,337.5 -46.25,335 -45,335 C -43.75,335 -42.5,337.5 -42.5,340 C -42.5,342.5 -43.75,345 -45,345 C -46.25,345 -47.5,342.5 -47.5,340"/>
    <line style="fill: none; fill-opacity:0; stroke-width: 2; stroke: #000000" x1="-10" y1="340" x2="0" y2="345"/>
    <line style="fill: none; fill-opacity:0; stroke-width: 2; stroke: #000000" x1="-10" y1="340" x2="0" y2="335"/>
  </g>
</svg>
